# xmcd CD database file
#
# Track frame offsets:
#	150
#	15013
#	27803
#	42243
#	56518
#	69577
#	83552
#	96785
#	110284
#	120925
#	138317
#	150786
#
# Disc length: 2220 seconds
#
# Revision: 0
# Processed by: cddbd v1.5.2PL0 Copyright (c) Steve Scherf et al.
# Submitted via: CDex 1.51
#
DISCID=7a08aa0c
DTITLE=Jimmy Witherspoon  - Baby Baby Baby
DYEAR=1991
DGENRE=Jazz
TTITLE0=Mean Old Frisco
TTITLE1=Rocks In My Bed
TTITLE2=Bad, Bad Whiskey
TTITLE3=Baby Baby Baby
TTITLE4=Sail On Little Girl 
TTITLE5=One Scotch, One Bourbon, One Beer
TTITLE6=Lonely Boy Blues 
TTITLE7=Blues And Trouble
TTITLE8=Endless Sleep
TTITLE9=I'll Go On Living
TTITLE10=I Can't Hardley See
TTITLE11=It's A Lonesome Old World
EXTD=YEAR: 1991
EXTT0=
EXTT1=
EXTT2=
EXTT3=
EXTT4=
EXTT5=
EXTT6=
EXTT7=
EXTT8=
EXTT9=
EXTT10=
EXTT11=
PLAYORDER=
